Coordinates
version=1
nRows=18
nColumns=63
inDegrees=yes

Units are S.I. units (second, meters, Newtons, ...)
If the header above contains a line with 'inDegrees', this indicates whether rotational values are in degrees (yes) or radians (no).

endheader
time	pelvis_tilt	pelvis_list	pelvis_rotation	pelvis_tx	pelvis_ty	pelvis_tz	hip_flexion_r	hip_adduction_r	hip_rotation_r	knee_angle_r	knee_angle_r_beta	ankle_angle_r	subtalar_angle_r	mtp_angle_r	hip_flexion_l	hip_adduction_l	hip_rotation_l	knee_angle_l	knee_angle_l_beta	ankle_angle_l	subtalar_angle_l	mtp_angle_l	L5_S1_Flex_Ext	L5_S1_Lat_Bending	L5_S1_axial_rotation	L4_L5_Flex_Ext	L4_L5_Lat_Bending	L4_L5_axial_rotation	L3_L4_Flex_Ext	L3_L4_Lat_Bending	L3_L4_axial_rotation	L2_L3_Flex_Ext	L2_L3_Lat_Bending	L2_L3_axial_rotation	L1_L2_Flex_Ext	L1_L2_Lat_Bending	L1_L2_axial_rotation	L1_T12_Flex_Ext	L1_T12_Lat_Bending	L1_T12_axial_rotation	Abs_r3	Abs_r2	Abs_r1	Abs_t1	Abs_t2	neck_flexion	neck_bending	neck_rotation	arm_flex_r	arm_add_r	arm_rot_r	elbow_flex_r	pro_sup_r	wrist_flex_r	wrist_dev_r	arm_flex_l	arm_add_l	arm_rot_l	elbow_flex_l	pro_sup_l	wrist_flex_l	wrist_dev_l
3.255319	5.139566	-4.265599	95.200308	0.187541	1.050997	0.507753	5.575718	2.553479	-12.616338	8.787298	0.153367	28.044043	16.218419	0.000000	4.224537	-4.116035	9.983547	2.197248	0.038349	22.591864	-8.535291	0.000000	0.197198	0.986208	-0.258592	0.366217	1.311656	-0.274754	0.323977	2.397866	-0.274754	0.225378	2.397866	-0.226268	0.183118	2.011075	-0.210106	0.112679	1.527636	-0.193944	1.408568	11.156180	-1.438210	0.000000	0.000000	25.611594	-4.200687	12.114511	26.052729	-12.913074	154.733596	1.128407	4.101793	-15.361962	-12.642508	19.067380	-5.079124	137.097731	5.824326	14.316179	-1.406983	-5.882602
3.276596	5.093972	-4.085010	95.386046	0.187555	1.051333	0.507461	5.406223	2.517971	-12.519915	8.826010	0.154043	28.455931	16.148749	0.000000	3.874291	-4.083976	11.050164	1.830118	0.031942	22.452635	-9.444076	0.000000	0.191790	0.970884	-0.292588	0.356174	1.291276	-0.310875	0.315092	2.360607	-0.310875	0.219197	2.360607	-0.256015	0.178096	1.979827	-0.237728	0.109589	1.503899	-0.219441	1.369939	10.982835	-1.627288	0.000000	0.000000	25.459464	-4.066339	11.675406	25.812793	-11.799030	148.094966	2.889858	8.987501	-14.826695	-13.189558	19.040761	-4.674175	133.198094	7.044218	18.705819	-0.416188	-4.999670
3.297872	5.036995	-3.881035	95.598646	0.187604	1.051674	0.507150	5.180294	2.478987	-12.520653	8.818236	0.153907	28.872309	16.194258	0.000000	3.533871	-4.049328	12.072929	1.533489	0.026764	22.382365	-10.231613	0.000000	0.185171	0.953028	-0.327690	0.343880	1.267527	-0.348171	0.304217	2.317192	-0.348171	0.211632	2.317192	-0.286729	0.171949	1.943414	-0.266248	0.105807	1.476240	-0.245768	1.322655	10.780841	-1.822514	0.000000	0.000000	25.302141	-3.918221	11.191556	25.436003	-10.842828	139.674763	5.364855	15.129562	-13.795387	-13.425282	18.857763	-4.340847	127.847016	8.834036	23.197964	0.446130	-4.346150
3.319149	4.965512	-3.659564	95.812156	0.187748	1.052046	0.506824	4.901961	2.440011	-12.545322	8.754718	0.152799	29.257313	16.280479	0.000000	3.207823	-4.009554	12.945745	1.311692	0.022893	22.388689	-10.812386	0.000000	0.177242	0.931944	-0.363097	0.329157	1.239486	-0.385790	0.291191	2.265929	-0.385790	0.202570	2.265929	-0.317710	0.164587	1.900421	-0.295016	0.101276	1.443582	-0.272323	1.266024	10.542340	-2.019436	0.000000	0.000000	25.117897	-3.744516	10.678467	24.961437	-10.048776	130.050506	8.470926	22.273017	-12.250202	-13.345803	18.478639	-4.088678	121.050756	11.155199	27.843071	1.163437	-4.048808
3.340426	4.880908	-3.431903	96.014173	0.188026	1.052464	0.506488	4.586779	2.406688	-12.535975	8.636493	0.150735	29.590165	16.338817	0.000000	2.909637	-3.969858	13.525486	1.170876	0.020436	22.479633	-11.044783	0.000000	0.169410	0.907072	-0.392508	0.314611	1.206406	-0.417039	0.278323	2.205456	-0.417039	0.193618	2.205456	-0.343444	0.157314	1.849702	-0.318912	0.096801	1.405055	-0.294381	1.210076	10.260984	-2.183010	0.000000	0.000000	24.899578	-3.571831	10.076388	24.352455	-9.427028	119.404632	12.140925	30.308273	-10.219818	-12.892673	17.900324	-3.919453	112.994369	13.947846	32.900954	1.671982	-4.111386
3.361702	4.789908	-3.196022	96.203419	0.188437	1.052965	0.506133	4.230627	2.387198	-12.501710	8.456355	0.147591	29.853606	16.385222	0.000000	2.629204	-3.932564	13.972231	1.096253	0.019133	22.590816	-11.170975	0.000000	0.162382	0.880358	-0.417472	0.301559	1.170877	-0.443564	0.266777	2.140504	-0.443564	0.185586	2.140504	-0.365288	0.150788	1.795227	-0.339196	0.092785	1.363675	-0.313104	1.159875	9.958791	-2.321855	0.000000	0.000000	24.604418	-3.381481	9.497281	23.641893	-8.986221	108.192972	16.205920	38.996266	-7.923031	-12.181158	17.207704	-3.899009	104.127337	17.122012	38.195441	1.943981	-4.500245
3.382979	4.698465	-2.955751	96.370422	0.188971	1.053552	0.505772	3.850625	2.381483	-12.481323	8.235666	0.143739	30.055400	16.477006	0.000000	2.367003	-3.896500	14.280689	1.078207	0.018818	22.708587	-11.226313	0.000000	0.155542	0.852449	-0.436870	0.288856	1.133758	-0.464175	0.255539	2.072646	-0.464175	0.177769	2.072646	-0.382262	0.144436	1.738315	-0.354957	0.088876	1.320444	-0.327653	1.111018	9.643078	-2.429742	0.000000	0.000000	24.255313	-3.177914	8.908558	22.842817	-8.709345	97.116938	20.524972	47.842041	-5.525932	-11.137676	16.381123	-4.041416	94.061449	20.675772	44.094577	2.219578	-4.832095
3.404255	4.604981	-2.718545	96.520478	0.189625	1.054219	0.505424	3.460639	2.389683	-12.426740	7.977510	0.139234	30.193631	16.544877	0.000000	2.141272	-3.862644	14.358287	1.131618	0.019750	22.853134	-11.090225	0.000000	0.149353	0.823050	-0.445976	0.277364	1.094657	-0.473850	0.245372	2.001164	-0.473850	0.170696	2.001164	-0.390229	0.138689	1.678364	-0.362356	0.085340	1.274905	-0.334482	1.066815	9.310508	-2.480387	0.000000	0.000000	23.862595	-2.973340	8.281262	21.938618	-8.587948	86.253442	24.951539	56.776441	-3.151515	-9.747734	15.492321	-4.334682	83.328196	24.476287	50.296460	2.566976	-4.948504
3.425532	4.507162	-2.496424	96.641536	0.190413	1.054945	0.505128	3.088705	2.404788	-12.334816	7.703286	0.134448	30.276509	16.597186	0.000000	1.971405	-3.830506	14.105427	1.269929	0.022164	23.048462	-10.645020	0.000000	0.143936	0.792356	-0.442007	0.267303	1.053833	-0.469633	0.236472	1.926534	-0.469633	0.164504	1.926534	-0.386756	0.133659	1.615772	-0.359131	0.082245	1.227359	-0.331505	1.028120	8.963289	-2.458311	0.000000	0.000000	23.442895	-2.767302	7.648478	20.963006	-8.598968	75.851148	29.295445	65.498642	-0.846125	-8.112499	14.611622	-4.762812	72.410181	28.399740	56.575099	2.994485	-4.770333
3.446809	4.403881	-2.295298	96.742012	0.191316	1.055713	0.504926	2.752976	2.421895	-12.216004	7.431721	0.129708	30.307939	16.630826	0.000000	1.865621	-3.798210	13.537811	1.490973	0.026022	23.282035	-9.892341	0.000000	0.138418	0.760544	-0.427539	0.257056	1.011524	-0.454260	0.227406	1.849187	-0.454260	0.158198	1.849187	-0.374096	0.128535	1.550901	-0.347375	0.079092	1.178083	-0.320654	0.988704	8.603427	-2.377842	0.000000	0.000000	23.017204	-2.559537	7.034704	19.965306	-8.707408	66.197653	33.415565	73.592467	1.383157	-6.319631	13.817100	-5.292752	61.811131	32.284488	62.875177	3.454283	-4.276091
3.468085	4.297550	-2.122066	96.809647	0.192351	1.056495	0.504830	2.462850	2.444137	-12.035980	7.163155	0.125021	30.290656	16.615680	0.000000	1.833282	-3.775858	12.582134	1.805807	0.031517	23.571595	-8.733051	0.000000	0.132873	0.727629	-0.397684	0.246759	0.967746	-0.422539	0.218298	1.769156	-0.422539	0.151861	1.769156	-0.347974	0.123386	1.483780	-0.323118	0.075924	1.127097	-0.298263	0.949102	8.231080	-2.211800	0.000000	0.000000	22.596293	-2.350754	6.418188	18.967603	-8.879397	57.542465	37.158965	80.650325	3.672634	-4.477661	13.170463	-5.883779	52.063174	35.967542	69.148221	3.868730	-3.577181
3.489362	4.191425	-1.978696	96.861516	0.193462	1.057265	0.504817	2.220025	2.470951	-11.802249	6.903410	0.120487	30.238838	16.539802	0.000000	1.860792	-3.761377	11.531051	2.179352	0.038037	23.818098	-7.539659	0.000000	0.127970	0.694489	-0.359765	0.237653	0.923670	-0.382250	0.210242	1.688580	-0.382250	0.146257	1.688580	-0.314794	0.118833	1.416201	-0.292309	0.073122	1.075763	-0.269824	0.914076	7.856195	-2.000906	0.000000	0.000000	22.184967	-2.170181	5.792703	18.025395	-9.080062	50.385699	40.388576	86.359955	6.015229	-2.650238	12.693970	-6.468198	44.178697	39.255685	74.603922	4.152184	-2.795408
3.510638	4.090969	-1.866356	96.903134	0.194600	1.058012	0.504884	2.029400	2.499766	-11.542852	6.666249	0.116348	30.161202	16.429995	0.000000	1.949409	-3.759457	10.289928	2.609354	0.045542	24.090408	-6.126137	0.000000	0.123934	0.662924	-0.318290	0.230157	0.881689	-0.338183	0.203611	1.611834	-0.338183	0.141644	1.611834	-0.278503	0.115085	1.351835	-0.258610	0.070816	1.026870	-0.238717	0.885246	7.499131	-1.770232	0.000000	0.000000	21.771590	-2.024201	5.226765	17.192228	-9.262605	45.070634	42.960255	90.515559	8.432563	-0.940696	12.380162	-7.001360	38.536141	41.949947	79.137018	4.168769	-2.093647
3.531915	3.993842	-1.767821	96.962291	0.195679	1.058746	0.505017	1.869850	2.520928	-11.371838	6.459814	0.112745	30.081991	16.385796	0.000000	2.085582	-3.768669	8.849773	3.102427	0.054148	24.410102	-4.422543	0.000000	0.118592	0.633398	-0.285025	0.220238	0.842420	-0.302839	0.194835	1.540045	-0.302839	0.135539	1.540045	-0.249397	0.110125	1.291626	-0.231583	0.067764	0.981134	-0.213769	0.847092	7.165129	-1.585223	0.000000	0.000000	21.360507	-1.905452	4.738363	16.554610	-9.368054	42.001145	44.730609	92.691104	10.764364	0.516452	12.205751	-7.451578	35.202346	43.920579	82.712066	3.993371	-1.439968
3.553191	3.906907	-1.678149	97.037190	0.196655	1.059473	0.505207	1.733632	2.541466	-11.228323	6.282367	0.109648	29.988994	16.332518	0.000000	2.243810	-3.787512	7.331031	3.614259	0.063081	24.740929	-2.576212	0.000000	0.112751	0.607738	-0.256387	0.209390	0.808292	-0.272411	0.185239	1.477654	-0.272411	0.128863	1.477654	-0.224339	0.104701	1.239299	-0.208315	0.064426	0.941386	-0.192290	0.805369	6.874854	-1.425948	0.000000	0.000000	20.942733	-1.828212	4.341185	16.122834	-9.321731	41.298785	45.572684	92.757194	12.902238	1.593724	12.255470	-7.756264	34.666987	44.973279	84.980524	3.701085	-1.131332
3.574468	3.825183	-1.590902	97.125416	0.197523	1.060200	0.505479	1.623196	2.550091	-11.159047	6.158127	0.107480	29.907182	16.326441	0.000000	2.414991	-3.809165	5.766743	4.139608	0.072250	25.089900	-0.603143	0.000000	0.106121	0.585425	-0.231337	0.197077	0.778616	-0.245796	0.174346	1.423403	-0.245796	0.121285	1.423403	-0.202420	0.098544	1.193799	-0.187962	0.060637	0.906824	-0.173503	0.758010	6.622448	-1.286630	0.000000	0.000000	20.506167	-1.797504	4.016507	15.947331	-9.046556	43.316508	45.333430	90.397376	14.707952	2.196291	12.561837	-7.843319	37.786701	44.896217	84.751068	3.783843	-1.223629
3.595745	3.751850	-1.494749	97.226073	0.198267	1.060943	0.505824	1.521929	2.553804	-11.135056	6.077699	0.106076	29.831311	16.321663	0.000000	2.571836	-3.834983	4.210062	4.644992	0.081070	25.437802	1.419659	0.000000	0.098211	0.566584	-0.210133	0.182388	0.753557	-0.223267	0.161351	1.377592	-0.223267	0.112246	1.377592	-0.183867	0.091199	1.155378	-0.170733	0.056118	0.877638	-0.157600	0.701513	6.409310	-1.168699	0.000000	0.000000	20.050336	-1.807060	3.731322	16.061886	-8.470070	48.528157	43.870511	85.327332	16.064369	2.197693	13.164825	-7.650891	44.154186	43.621316	82.169145	4.439498	-1.946851
3.617021	3.752975	-1.434919	97.332618	0.198710	1.061387	0.506166	1.488064	2.601244	-11.169621	6.061995	0.105802	29.808951	16.337621	0.000000	2.754048	-3.915420	2.885173	5.108727	0.089164	25.804243	3.196495	0.000000	0.092549	0.560611	-0.177620	0.171873	0.745612	-0.188721	0.152049	1.363069	-0.188721	0.105774	1.363069	-0.155417	0.085941	1.143198	-0.144316	0.052883	0.868386	-0.133215	0.661069	6.341741	-0.987869	0.000000	0.000000	19.773761	-1.883217	3.460853	15.762464	-8.467138	47.608454	43.908544	85.008468	16.739107	2.936297	13.428961	-7.747447	44.769620	43.493971	84.346630	4.699667	-1.520755
